<svg width="28" height="27" viewBox="0 0 28 27" fill="none" xmlns="http://www.w3.org/2000/svg">
<path d="M27.9 10.1612C27.7789 9.78798 27.5506 9.45858 27.2437 9.21409C26.9367 8.96959 26.5646 8.8208 26.1737 8.78625L18.75 8.14624L15.84 1.22624C15.6885 0.86314 15.4329 0.552979 15.1055 0.334817C14.7781 0.116654 14.3934 0.000244141 14 0.000244141C13.6065 0.000244141 13.2219 0.116654 12.8945 0.334817C12.5671 0.552979 12.3115 0.86314 12.16 1.22624L9.25874 8.14624L1.82624 8.79C1.43379 8.82297 1.0598 8.97109 0.751189 9.21576C0.442576 9.46044 0.213071 9.79079 0.0914561 10.1654C-0.0301592 10.54 -0.0384718 10.9421 0.0675611 11.3214C0.173594 11.7007 0.389252 12.0403 0.687491 12.2975L6.32624 17.225L4.63624 24.5425C4.54688 24.9254 4.57238 25.3262 4.70955 25.6947C4.84672 26.0632 5.08949 26.3831 5.40748 26.6144C5.72548 26.8457 6.10461 26.9782 6.49746 26.9951C6.89031 27.0121 7.27945 26.913 7.61624 26.71L13.9912 22.835L20.38 26.71C20.7168 26.913 21.1059 27.0121 21.4988 26.9951C21.8916 26.9782 22.2707 26.8457 22.5887 26.6144C22.9067 26.3831 23.1495 26.0632 23.2867 25.6947C23.4239 25.3262 23.4494 24.9254 23.36 24.5425L21.6712 17.2175L27.3087 12.2975C27.6069 12.0394 27.8222 11.6989 27.9274 11.3188C28.0326 10.9387 28.023 10.5359 27.9 10.1612ZM25.9975 10.7862L20.36 15.7062C20.0856 15.9449 19.8815 16.2539 19.7696 16.5999C19.6577 16.9459 19.6423 17.3159 19.725 17.67L21.4187 25L15.035 21.125C14.7235 20.9353 14.3659 20.835 14.0012 20.835C13.6366 20.835 13.2789 20.9353 12.9675 21.125L6.59249 25L8.27499 17.675C8.35768 17.3209 8.34225 16.9509 8.23036 16.6049C8.11847 16.2589 7.91437 15.9499 7.63999 15.7112L1.99999 10.7937C1.99953 10.79 1.99953 10.7862 1.99999 10.7825L9.42999 10.14C9.79274 10.108 10.1399 9.97761 10.434 9.76283C10.728 9.54806 10.9579 9.25706 11.0987 8.92125L14 2.00999L16.9 8.92125C17.0408 9.25706 17.2707 9.54806 17.5648 9.76283C17.8589 9.97761 18.206 10.108 18.5687 10.14L26 10.7825C26 10.7825 26 10.79 26 10.7912L25.9975 10.7862Z" fill="black"/>
</svg>
